USFL
nRows=327
nColumns=2
inDegrees=yes
endheader
time	med_gas_r	
4.59073	 36.082306	
4.62399	 36.084877	
4.65726	 36.067222	
4.69052	 36.039202	
4.72379	 36.034548	
4.75706	 35.974069	
4.79032	 35.962509	
4.82359	 35.998087	
4.85685	 35.907026	
4.89012	 35.901217	
4.92339	 35.885706	
4.95665	 35.886151	
4.98992	 35.928438	
5.02319	 35.993853	
5.05645	 36.018164	
5.08972	 36.035763	
5.12298	 35.995909	
5.15625	 36.019172	
5.18952	 35.973664	
5.22278	 36.060763	
5.25605	 36.080358	
5.28931	 36.125520	
5.32258	 36.142264	
5.35585	 36.194939	
5.38911	 36.082061	
5.42238	 36.168775	
5.45565	 36.034248	
5.48891	 35.950090	
5.52218	 35.905351	
5.55544	 35.942177	
5.58871	 35.960945	
5.62198	 36.107340	
5.65524	 36.039748	
5.68851	 36.046169	
5.72177	 36.003435	
5.75504	 35.984900	
5.78831	 36.060482	
5.82157	 36.157544	
5.85484	 36.138552	
5.8881	 36.124224	
5.92137	 36.228035	
5.95464	 36.142343	
5.9879	 36.045089	
6.02117	 36.118830	
6.05444	 36.048719	
6.0877	 36.071731	
6.12097	 36.091818	
6.15423	 36.036792	
6.1875	 35.975967	
6.22077	 35.923914	
6.25403	 35.934260	
6.2873	 35.932813	
6.32056	 35.883910	
6.35383	 35.815300	
6.3871	 35.769184	
6.42036	 35.759559	
6.45363	 35.731453	
6.4869	 35.741772	
6.52016	 35.686636	
6.55343	 35.652349	
6.58669	 35.641891	
6.61996	 35.732381	
6.65323	 35.797816	
6.68649	 35.709442	
6.71976	 35.637244	
6.75302	 35.542114	
6.78629	 35.416975	
6.81956	 35.383506	
6.85282	 35.375854	
6.88609	 35.282575	
6.91935	 35.240530	
6.95262	 35.122300	
6.98589	 34.964314	
7.01915	 34.878165	
7.05242	 34.878427	
7.08569	 34.764364	
7.11895	 34.650199	
7.15222	 34.609182	
7.18548	 34.539848	
7.21875	 34.626790	
7.25202	 34.579922	
7.28528	 34.539959	
7.31855	 34.549731	
7.35181	 34.550506	
7.38508	 34.520198	
7.41835	 34.571848	
7.45161	 34.583179	
7.48488	 34.567805	
7.51815	 34.539751	
7.55141	 34.529884	
7.58468	 34.508145	
7.61794	 34.517554	
7.65121	 34.519247	
7.68448	 34.513986	
7.71774	 34.544457	
7.75101	 34.535921	
7.78427	 34.576491	
7.81754	 34.604635	
7.85081	 34.553299	
7.88407	 34.542349	
7.91734	 34.540700	
7.9506	 34.515841	
7.98387	 34.446876	
8.01714	 34.352848	
8.0504	 34.374583	
8.08367	 34.349331	
8.11694	 34.316751	
8.1502	 34.350718	
8.18347	 34.394223	
8.21673	 34.382134	
8.25	 34.352328	
8.28327	 34.346154	
8.31653	 34.308397	
8.3498	 34.258386	
8.38306	 34.358434	
8.41633	 34.359741	
8.4496	 34.386279	
8.48286	 34.359712	
8.51613	 34.370956	
8.5494	 34.418537	
8.58266	 34.365306	
8.61593	 34.348823	
8.64919	 34.313648	
8.68246	 34.208396	
8.71573	 34.147679	
8.74899	 34.139497	
8.78226	 34.070895	
8.81552	 33.998954	
8.84879	 33.946187	
8.88206	 33.907184	
8.91532	 33.752513	
8.94859	 33.746868	
8.98185	 33.762149	
9.01512	 33.705031	
9.04839	 33.651832	
9.08165	 33.548603	
9.11492	 33.544457	
9.14819	 33.501384	
9.18145	 33.469336	
9.21472	 33.466638	
9.24798	 33.434227	
9.28125	 33.305220	
9.31452	 33.272683	
9.34778	 33.158874	
9.38105	 33.110158	
9.41431	 33.093898	
9.44758	 33.052116	
9.48085	 33.062361	
9.51411	 33.052815	
9.54738	 33.040955	
9.58065	 33.017623	
9.61391	 33.031420	
9.64718	 32.836554	
9.68044	 32.873138	
9.71371	 32.794144	
9.74698	 32.713496	
9.78024	 32.684557	
9.81351	 32.680584	
9.84677	 32.688523	
9.88004	 32.679959	
9.91331	 32.625227	
9.94657	 32.592449	
9.97984	 32.541989	
10.0131	 32.455845	
10.0464	 32.471761	
10.0796	 32.567300	
10.1129	 32.574460	
10.1462	 32.630518	
10.1794	 32.687410	
10.2127	 32.653273	
10.246	 32.763388	
10.2792	 32.809720	
10.3125	 32.789464	
10.3458	 32.910223	
10.379	 32.896493	
10.4123	 32.886587	
10.4456	 32.843524	
10.4788	 32.820017	
10.5121	 32.858393	
10.5454	 32.866518	
10.5786	 32.868732	
10.6119	 32.866789	
10.6452	 32.865040	
10.6784	 32.894804	
10.7117	 32.906336	
10.745	 32.883444	
10.7782	 32.860769	
10.8115	 32.816808	
10.8448	 32.802174	
10.878	 32.772582	
10.9113	 32.696408	
10.9446	 32.684880	
10.9778	 32.686950	
11.0111	 32.726790	
11.0444	 32.732299	
11.0776	 32.787191	
11.1109	 32.817990	
11.1442	 32.771006	
11.1774	 32.731745	
11.2107	 32.702434	
11.244	 32.709963	
11.2772	 32.777332	
11.3105	 32.787887	
11.3437	 32.777685	
11.377	 32.774335	
11.4103	 32.752577	
11.4435	 32.770327	
11.4768	 32.790476	
11.5101	 32.792449	
11.5433	 32.754453	
11.5766	 32.732118	
11.6099	 32.723189	
11.6431	 32.707412	
11.6764	 32.661321	
11.7097	 32.668890	
11.7429	 32.695704	
11.7762	 32.692280	
11.8095	 32.644034	
11.8427	 32.623809	
11.876	 32.615323	
11.9093	 32.631387	
11.9425	 32.647299	
11.9758	 32.611329	
12.0091	 32.567673	
12.0423	 32.564689	
12.0756	 32.573529	
12.1089	 32.583225	
12.1421	 32.562289	
12.1754	 32.546598	
12.2087	 32.545511	
12.2419	 32.541373	
12.2752	 32.510925	
12.3085	 32.517527	
12.3417	 32.454327	
12.375	 32.403005	
12.4083	 32.388912	
12.4415	 32.396652	
12.4748	 32.360353	
12.5081	 32.347136	
12.5413	 32.349824	
12.5746	 32.339879	
12.6079	 32.345026	
12.6411	 32.352827	
12.6744	 32.344354	
12.7077	 32.367441	
12.7409	 32.362519	
12.7742	 32.357001	
12.8075	 32.365379	
12.8407	 32.377836	
12.874	 32.383903	
12.9073	 32.431530	
12.9405	 32.447151	
12.9738	 32.432129	
13.0071	 32.338140	
13.0403	 32.334676	
13.0736	 32.308961	
13.1069	 32.283072	
13.1401	 32.262465	
13.1734	 32.281824	
13.2067	 32.294250	
13.2399	 32.296466	
13.2732	 32.284497	
13.3065	 32.307505	
13.3397	 32.274447	
13.373	 32.262840	
13.4062	 32.298569	
13.4395	 32.273601	
13.4728	 32.276658	
13.506	 32.283608	
13.5393	 32.321793	
13.5726	 32.339820	
13.6058	 32.339274	
13.6391	 32.350742	
13.6724	 32.360141	
13.7056	 32.339765	
13.7389	 32.329199	
13.7722	 32.379844	
13.8054	 32.344275	
13.8387	 32.362315	
13.872	 32.400029	
13.9052	 32.376452	
13.9385	 32.415325	
13.9718	 32.425436	
14.005	 32.371397	
14.0383	 32.422548	
14.0716	 32.416943	
14.1048	 32.407483	
14.1381	 32.412823	
14.1714	 32.402977	
14.2046	 32.317150	
14.2379	 32.271254	
14.2712	 32.254709	
14.3044	 32.207495	
14.3377	 32.192222	
14.371	 32.049905	
14.4042	 31.996236	
14.4375	 33.768221	
14.4708	 33.880054	
14.504	 33.835285	
14.5373	 33.761494	
14.5706	 33.774773	
14.6038	 33.712111	
14.6371	 33.699243	
14.6704	 35.584419	
14.7036	 35.543434	
14.7369	 35.529305	
14.7702	 35.440125	
14.8034	 35.430011	
14.8367	 36.623959	
14.87	 36.551036	
14.9032	 36.496155	
14.9365	 36.580428	
14.9698	 36.545859	
15.003	 36.337181	
15.0363	 36.138186	
15.0696	 36.143175	
15.1028	 36.171612	
15.1361	 36.197734	
15.1694	 36.378432	
15.2026	 36.576213	
15.2359	 36.554542	
15.2692	 36.394192	
15.3024	 36.233901	
15.3357	 36.185468	
15.369	 36.030379	
15.4022	 36.130339	
15.4355	 36.125063	
